<?xml version="1.0" encoding="utf-8"?>
<!-- Generator: Adobe Illustrator 16.0.4, SVG Export Plug-In . SVG Version: 6.00 Build 0)  -->
<!DOCTYPE svg PUBLIC "-//W3C//DTD SVG 1.1//EN" "http://www.w3.org/Graphics/SVG/1.1/DTD/svg11.dtd">
<svg version="1.1" id="gr_x5F_icon07_x5F_pathTools"
	 xmlns="http://www.w3.org/2000/svg" xmlns:xlink="http://www.w3.org/1999/xlink" x="0px" y="0px" width="250px" height="250px"
	 viewBox="0 0 250 250" enable-background="new 0 0 250 250" xml:space="preserve">
<g id="gr_x5F_big_7_">
	<path id="gr_109_" fill="#F3BA48" d="M237.666,172.702c0,9.539-6.756,21.251-15.021,26.019l-82.621,47.701
		c-8.262,4.771-21.781,4.771-30.043,0l-82.624-47.701c-8.263-4.768-15.021-16.479-15.021-26.019V77.298
		c0-9.539,6.759-21.25,15.021-26.018L109.98,3.579c8.263-4.771,21.782-4.771,30.043,0l82.621,47.702
		c8.266,4.768,15.021,16.479,15.021,26.018V172.702z"/>
	<g>
		<path fill="#FFFFFF" d="M91.966,89.286c0,1.479-1.2,2.679-2.679,2.679c-1.656,0-3.32,0.122-4.949,0.37
			c-0.136,0.018-0.269,0.028-0.401,0.028c-1.304,0-2.448-0.952-2.644-2.281c-0.223-1.465,0.788-2.829,2.25-3.048
			c1.891-0.282,3.822-0.425,5.744-0.425C90.766,86.607,91.966,87.807,91.966,89.286z M86.323,157.907
			c-3.425-0.304-6.759-1.137-9.919-2.477c-1.36-0.582-2.93,0.057-3.509,1.42s0.056,2.934,1.416,3.512
			c3.676,1.56,7.559,2.529,11.537,2.881c0.084,0.008,0.161,0.011,0.244,0.011c1.371,0,2.539-1.05,2.665-2.441
			C88.886,159.337,87.798,158.036,86.323,157.907z M108.903,151.584c-2.77,2.048-5.821,3.642-9.068,4.733
			c-1.402,0.474-2.155,1.991-1.682,3.393c0.377,1.12,1.42,1.824,2.539,1.824c0.279,0,0.572-0.045,0.852-0.139
			c3.78-1.273,7.324-3.125,10.543-5.508c1.189-0.879,1.44-2.557,0.562-3.746C111.769,150.956,110.088,150.698,108.903,151.584z
			 M56.266,126.012L56.251,125c0-3.111,0.43-6.187,1.28-9.145c0.408-1.419-0.411-2.905-1.831-3.313
			c-1.423-0.397-2.909,0.412-3.316,1.834c-0.987,3.436-1.489,7.01-1.489,10.624l0.014,1.165c0.042,1.455,1.234,2.603,2.679,2.603
			c0.024,0,0.049,0,0.076,0C55.143,128.722,56.307,127.49,56.266,126.012z M190.471,110.634c0.463,0.956,1.418,1.514,2.412,1.514
			c0.391,0,0.789-0.084,1.162-0.269c1.332-0.642,1.891-2.243,1.248-3.575c-1.732-3.585-4.01-6.871-6.766-9.769
			c-1.021-1.074-2.721-1.12-3.787-0.094c-1.074,1.019-1.117,2.714-0.098,3.784C187.02,104.723,188.98,107.551,190.471,110.634z
			 M59.46,139.224c-0.642-1.336-2.242-1.904-3.571-1.263c-1.34,0.638-1.904,2.235-1.263,3.571c1.716,3.596,3.976,6.892,6.721,9.805
			c0.526,0.558,1.238,0.84,1.95,0.84c0.659,0,1.318-0.24,1.838-0.729c1.077-1.016,1.126-2.71,0.111-3.788
			C62.885,145.156,60.936,142.317,59.46,139.224z M72.424,93.395c-0.792-1.249-2.448-1.611-3.7-0.823
			c-3.369,2.142-6.376,4.782-8.929,7.851c-0.949,1.133-0.795,2.825,0.342,3.77c0.502,0.418,1.109,0.621,1.716,0.621
			c0.768,0,1.527-0.328,2.058-0.966c2.197-2.637,4.785-4.911,7.688-6.756C72.846,96.3,73.216,94.643,72.424,93.395z M148.279,88.668
			c-3.773,1.294-7.311,3.164-10.512,5.556c-1.188,0.886-1.432,2.563-0.545,3.749c0.523,0.701,1.332,1.074,2.148,1.074
			c0.559,0,1.115-0.174,1.598-0.534c2.758-2.058,5.803-3.666,9.047-4.774c1.395-0.481,2.141-2.005,1.664-3.404
			C151.201,88.934,149.674,88.191,148.279,88.668z M175.512,89.565c-3.684-1.535-7.568-2.483-11.553-2.818
			c-1.467-0.132-2.77,0.973-2.895,2.445c-0.121,1.472,0.973,2.769,2.449,2.891c3.424,0.29,6.766,1.105,9.932,2.427
			c0.34,0.14,0.688,0.206,1.033,0.206c1.047,0,2.043-0.617,2.473-1.646C177.52,91.703,176.875,90.137,175.512,89.565z
			 M124.782,129.817c-1.454-0.328-2.87,0.613-3.177,2.064c-0.712,3.355-1.939,6.567-3.651,9.549c-0.736,1.28-0.297,2.92,0.986,3.656
			c0.422,0.24,0.879,0.355,1.332,0.355c0.928,0,1.832-0.481,2.327-1.347c1.991-3.463,3.42-7.202,4.249-11.104
			C127.154,131.543,126.229,130.124,124.782,129.817z M199.08,123.644c-0.049-1.479-1.324-2.588-2.762-2.588
			c-1.479,0.052-2.637,1.291-2.588,2.769l0.021,1.175c0,3.056-0.418,6.079-1.242,8.988c-0.4,1.423,0.426,2.905,1.85,3.307
			c0.244,0.069,0.49,0.101,0.732,0.101c1.168,0,2.242-0.771,2.572-1.949c0.957-3.383,1.445-6.898,1.445-10.457
			C199.105,124.536,199.098,124.09,199.08,123.644z M186.189,146.035c-2.189,2.65-4.768,4.935-7.658,6.794
			c-1.244,0.799-1.604,2.455-0.805,3.7c0.512,0.799,1.373,1.231,2.256,1.231c0.494,0,0.998-0.136,1.443-0.426
			c3.359-2.158,6.352-4.812,8.895-7.889c0.941-1.141,0.781-2.829-0.359-3.771S187.133,144.892,186.189,146.035z M130.963,105.057
			c-1.287-0.729-2.928-0.279-3.652,1.008c-1.977,3.477-3.39,7.219-4.192,11.129c-0.3,1.447,0.631,2.863,2.078,3.163
			c0.182,0.039,0.366,0.056,0.544,0.056c1.246,0,2.359-0.872,2.623-2.138c0.691-3.355,1.904-6.574,3.607-9.567
			C132.699,107.425,132.25,105.79,130.963,105.057z M165.662,157.667c-1.625,0.247-3.293,0.369-4.945,0.369
			c-1.48,0-2.68,1.2-2.68,2.679s1.199,2.679,2.68,2.679c1.918,0,3.85-0.143,5.74-0.426c1.465-0.22,2.469-1.583,2.252-3.048
			C168.486,158.455,167.105,157.479,165.662,157.667z"/>
		<path fill="#FFFFFF" d="M86.825,69.343c-6.469,0-11.719,5.245-11.719,11.722c0,6.48,9.277,16.375,9.277,16.375
			c1.347,1.434,3.544,1.434,4.887,0c0,0,9.281-9.895,9.281-16.375C98.551,74.588,93.298,69.343,86.825,69.343z M86.825,84.85
			c-2.393,0-4.342-1.95-4.342-4.342s1.949-4.342,4.342-4.342c2.396,0,4.346,1.95,4.346,4.342S89.221,84.85,86.825,84.85z"/>
		<path fill="#FFFFFF" d="M163.014,136.9c-6.469,0-11.721,5.246-11.721,11.723c0,6.48,9.277,16.375,9.277,16.375
			c1.346,1.434,3.543,1.434,4.889,0c0,0,9.277-9.895,9.277-16.375C174.736,142.146,169.488,136.9,163.014,136.9z M163.014,152.407
			c-2.395,0-4.342-1.949-4.342-4.342s1.947-4.343,4.342-4.343c2.396,0,4.344,1.95,4.344,4.343S165.41,152.407,163.014,152.407z"/>
	</g>
</g>
</svg>
