<?xml version="1.0" encoding="utf-8"?>
<!-- Generator: Adobe Illustrator 16.0.0, SVG Export Plug-In . SVG Version: 6.00 Build 0)  -->
<!DOCTYPE svg PUBLIC "-//W3C//DTD SVG 1.1//EN" "http://www.w3.org/Graphics/SVG/1.1/DTD/svg11.dtd">
<svg version="1.1" id="Layer_1" xmlns="http://www.w3.org/2000/svg" xmlns:xlink="http://www.w3.org/1999/xlink" x="0px" y="0px"
	 width="611.99px" height="612px" viewBox="0 0 611.99 612" enable-background="new 0 0 611.99 612" xml:space="preserve">
<circle fill="#79C9DB" cx="306.015" cy="305.979" r="305.979"/>
<path fill="#99DBFF" d="M306.019,611.959C137.03,611.959,0.04,474.967,0.04,305.98C0.04,136.993,137.032,0,306.019,0V611.959z"/>
<path fill="#924045" d="M63.919,303.327c-9.6,0-17.386-7.785-17.386-17.386v-31.293c0-9.6,7.785-17.387,17.386-17.387
	s17.386,7.785,17.386,17.387v31.293C81.305,295.543,73.52,303.327,63.919,303.327z"/>
<path fill="#AC4045" d="M3.234,261.919C-21.07,428.888,94.404,584.073,261.4,608.689c145.363,21.426,281.877-63.147,331.239-195.479
	C389.195,280.871,88.297,264.004,3.234,261.919z"/>
<path fill="#C26053" d="M3.234,261.919C-21.07,428.888,94.404,584.073,261.4,608.689c14.713,2.168,29.632,3.117,44.614,2.939
	l0.01-311.958C173.349,269.252,52.334,263.124,3.234,261.919z"/>
<path fill="#D29500" d="M152.691,429.18c0.937-44.44,10.374-98.058,40.137-150.641c-14.533-2.139-28.618-4.001-42.187-5.632
	c-49.381,67.729-60.094,141.558-59.937,193.443L152.691,429.18z"/>
<g>
	<path fill="#6B3E35" d="M546.963,400.363c-9.6,0-17.386-7.785-17.386-17.387v-77.896c0-9.601,7.785-17.386,17.386-17.386
		c9.6,0,17.385,7.785,17.385,17.386v77.896C564.349,392.58,556.565,400.363,546.963,400.363z"/>
	<path fill="#6B3E35" d="M501.028,400.363c-9.601,0-17.386-7.785-17.386-17.387v-77.896c0-9.601,7.785-17.386,17.386-17.386
		c9.6,0,17.385,7.785,17.385,17.386v77.896C518.413,392.58,510.631,400.363,501.028,400.363z"/>
</g>
<circle fill="#FEAB00" cx="417.246" cy="163.125" r="47.59"/>
<path fill="#D29500" d="M57.37,484.268c46.648,65.043,118.589,111.828,204.029,124.42
	c167.181,24.642,322.685-90.909,347.326-258.091c0.497-3.371,0.917-6.734,1.3-10.096C299.692,317.598,119.263,434.405,57.37,484.268
	z"/>
<path fill="#FEAB00" d="M57.37,484.268c46.648,65.043,118.589,111.828,204.029,124.42c14.995,2.21,29.897,3.293,44.618,3.312
	l-0.002-246.928C177.191,398.389,95.173,453.812,57.37,484.268z"/>
<path fill="#AC4045" d="M312.159,363.522c-22.509,5.633-43.635,11.939-63.362,18.693c21.457,22.671,96.869,111.691,81.988,228.806
	c52.443-4.211,101.886-21.896,144.266-50.005C445.123,453.35,360.188,391.089,312.159,363.522z"/>
<path fill="#C26053" d="M306.019,365.086c-20.221,5.229-39.298,10.996-57.222,17.131c11.217,11.853,37.18,41.838,57.279,84.491
	L306.019,365.086z"/>
</svg>
